<svg width="169" height="140" viewBox="0 0 169 140" fill="none" xmlns="http://www.w3.org/2000/svg">
<path fill-rule="evenodd" clip-rule="evenodd" d="M84.341 0.198523C84.267 0.271523 83.093 0.485521 81.73 0.674521C70.745 2.20052 66.744 16.3465 74.895 24.8405L76.476 26.4875L75.187 28.6675C74.477 29.8675 72.784 32.7865 71.423 35.1545C68.217 40.7335 65.478 44.8905 61.755 49.8275C47.954 68.1315 46.815 68.1935 35.394 51.2635C31.946 46.1505 29.713 43.0685 25.898 38.1555C25.382 37.4905 25.371 37.3405 25.794 36.6835C29.834 30.4105 26.982 20.6945 20.078 17.2085C5.35303 9.77452 -7.11097 27.7235 4.68703 39.3735L6.53603 41.1995V51.2075C6.53603 59.8685 6.64004 62.0505 7.30604 67.4045C7.73004 70.8075 8.17003 75.9605 8.28303 78.8545C8.39703 81.7495 8.69303 85.8405 8.94103 87.9455C9.52703 92.9275 10.595 105.633 11.004 112.508C11.621 122.854 12.913 132.95 13.818 134.501C15.116 136.723 16.43 137.055 31.098 138.867C39.053 139.851 100.956 139.648 102.598 138.634C102.754 138.537 108.8 138.334 116.033 138.182C129.395 137.901 136.309 137.398 146.568 135.959C149.112 135.603 151.893 135.228 152.748 135.128C156.864 134.643 157.498 132.501 158.219 116.654C158.62 107.83 159.158 100.073 159.822 93.5275C159.92 92.5625 160.226 89.5485 160.503 86.8295C160.886 83.0605 161.027 77.3015 161.098 62.6035L161.19 43.3215L161.877 43.0675C162.256 42.9275 163.397 41.9815 164.413 40.9655C172.133 33.2445 168.708 20.2275 158.311 17.7755C146.103 14.8975 137.477 26.0555 142.956 37.6375L143.769 39.3555L142.84 40.3655C142.329 40.9205 141.048 42.3205 139.993 43.4755C138.938 44.6315 135.746 48.6855 132.9 52.4855C121.208 68.0925 119.371 67.8795 108.597 49.6685C104.468 42.6885 98.508 33.0995 95.949 29.3155C93.217 25.2765 93.346 25.8035 94.72 24.2825C100.152 18.2705 98.866 6.41953 92.305 2.02353C90.382 0.734527 85.035 -0.490477 84.341 0.198523ZM88.3 6.56252C94.228 9.03952 93.395 20.5095 87.136 22.5885C81.004 24.6255 75.802 19.6745 76.676 12.6335C77.297 7.63253 83.325 4.48352 88.3 6.56252ZM16.285 21.9735C19.434 23.0455 21.847 26.3695 21.847 29.6325C21.847 38.4655 9.16403 40.0905 6.42503 31.6075C4.22903 24.8095 9.49803 19.6605 16.285 21.9735ZM158.37 24.0175C165.777 27.3745 163.758 38.0105 155.551 38.8675C147.407 39.7195 143.641 27.6275 150.875 23.8545C152.326 23.0985 156.545 23.1895 158.37 24.0175ZM89.206 29.8915C90.17 31.1615 94.398 37.5025 96.58 40.9505C97.209 41.9455 99.553 45.8215 101.789 49.5635C111.899 66.4845 115.033 69.7325 121.212 69.6925C126.064 69.6615 129.217 67.2085 135.877 58.2805C140.728 51.7805 144.402 47.2965 146.816 44.9335L148.719 43.0705L149.76 43.6085C150.333 43.9045 151.751 44.2415 152.911 44.3555L155.021 44.5645L155.279 49.1895C155.91 60.4825 155.19 83.3135 153.766 97.1965C153.263 102.094 153.089 104.872 152.622 115.378C152.259 123.562 151.731 128.807 151.23 129.224C150.854 129.535 143.465 130.547 135.723 131.346C133.179 131.609 125.385 131.959 118.403 132.124C111.421 132.289 105.59 132.498 105.444 132.588C104.297 133.297 41.835 134.016 35.723 133.39C27.861 132.586 19.424 131.405 19.093 131.063C18.55 130.501 17.743 124.469 17.231 117.133C15.854 97.4285 15.07 88.7525 14.599 87.9895C14.502 87.8335 14.304 84.7445 14.158 81.1265C14.013 77.5085 13.665 72.4675 13.386 69.9235C12.37 60.6645 12.295 59.4285 12.291 51.9015C12.285 42.1905 12.047 42.9475 15.187 42.7045C16.587 42.5965 18.351 42.2335 19.116 41.8945L20.505 41.2805L21.602 42.4435C23.812 44.7875 26.612 48.5175 30.137 53.8145C39.135 67.3355 41.974 69.8575 47.837 69.5365C53.307 69.2375 56.399 66.5265 66.723 52.9725C70.278 48.3055 71.984 45.7195 75.424 39.7795C78.57 34.3485 81.32 29.8805 82.001 29.0945C82.313 28.7335 83.135 28.6155 85.326 28.6155H88.237L89.206 29.8915ZM81.626 67.0435C68.54 69.8255 66.523 95.1705 78.903 101.266C89.227 106.348 98.677 95.7105 96.862 81.0495C95.616 70.9835 89.507 65.3685 81.626 67.0435ZM87.62 73.4035C93.201 76.9435 92.93 92.5075 87.228 95.8755C80.595 99.7935 74.34 91.0705 76.373 80.7375C77.737 73.8065 82.923 70.4245 87.62 73.4035ZM45.028 82.1705C35.89 84.6985 37.595 98.4395 47.047 98.4395C57.335 98.4385 58.219 83.1765 48.003 81.9205C47.204 81.8225 45.886 81.9335 45.028 82.1705ZM118.801 82.1475C109.229 84.8095 111.011 98.4885 120.923 98.4365C127.82 98.4015 131.408 89.7435 126.733 84.4195C124.892 82.3215 121.583 81.3745 118.801 82.1475ZM49.553 86.9995C52.527 89.5025 50.896 94.1655 47.047 94.1655C43.558 94.1655 41.738 89.9975 44.086 87.3855C45.383 85.9435 48.072 85.7535 49.553 86.9995ZM123.443 87.1495C126.115 89.6595 124.45 94.1655 120.85 94.1655C117.506 94.1655 115.601 91.2515 117.078 88.3945C118.227 86.1725 121.683 85.4965 123.443 87.1495ZM81.815 112.57C60.447 113.127 30.683 115.764 29.786 117.179C28.364 119.424 29.882 120.181 34.552 119.553C60.962 116.004 104.335 114.98 129.662 117.308C132.557 117.574 135.576 117.905 136.37 118.044C138.235 118.369 139.493 117.95 139.753 116.917C140.059 115.697 139.002 114.851 136.78 114.537C124.615 112.817 102.576 112.028 81.815 112.57ZM81.804 122.886C70.788 123.17 69.454 123.51 70.641 125.726C71.156 126.69 71.477 126.703 84.937 126.343C99.193 125.961 99.395 125.928 98.93 124.075C98.52 122.442 98.661 122.452 81.804 122.886Z" fill="#070605"/>
<path fill-rule="evenodd" clip-rule="evenodd" d="M84.8459 28.6945L82.2939 28.8035L80.7659 31.1685C79.9259 32.4695 78.2229 35.2985 76.9809 37.4545C71.1129 47.6445 68.1519 51.8675 59.7259 62.0645C54.1189 68.8505 49.5169 71.0025 44.2429 69.3065C40.0419 67.9565 37.6219 65.3875 30.6229 54.8525C26.4479 48.5705 23.9829 45.2475 21.7859 42.9435L20.5439 41.6425L18.8279 42.2215C17.8839 42.5405 16.0959 42.8955 14.8539 43.0105L12.5969 43.2205L12.6069 52.6645C12.6119 57.8585 12.7569 63.1845 12.9289 64.5005C13.7149 70.5145 13.9069 72.7495 14.1789 79.0145C14.3389 82.6985 14.6859 87.1485 14.9509 88.9025C15.5779 93.0655 16.0099 97.3265 16.4239 103.417C16.6089 106.136 16.9739 111.519 17.2359 115.378C17.7479 122.941 18.6699 130.351 19.1599 130.841C20.3619 132.043 36.9529 133.494 48.8009 133.433C76.0519 133.293 92.9639 133.068 97.9239 132.777C100.906 132.602 108.801 132.314 115.468 132.137C129.489 131.764 142.731 130.703 150.02 129.368C151.605 129.078 152.015 126.512 152.481 113.943C152.677 108.664 153.528 96.2375 153.748 95.4415C154.623 92.2785 155.566 66.2695 155.253 53.9745L155.021 44.8835L152.991 44.6335C151.875 44.4955 150.439 44.1635 149.801 43.8935L148.641 43.4045L145.564 46.5845C143.872 48.3335 140.58 52.3265 138.249 55.4575C129.008 67.8705 126.753 69.7635 121.209 69.7635C114.824 69.7635 111.754 66.6685 102.231 50.6255C95.2829 38.9205 88.3709 28.3965 87.7159 28.5235C87.5409 28.5575 86.2489 28.6345 84.8459 28.6945ZM88.3019 67.2495C99.5749 71.2275 100.354 96.0365 89.3719 101.313C79.1509 106.223 70.2729 97.8835 70.7339 83.8065C71.1439 71.2915 78.9379 63.9455 88.3019 67.2495ZM49.9579 82.2125C56.8499 84.5615 57.3449 94.7945 50.7169 97.8815C45.0019 100.543 38.7529 96.4355 38.7529 90.0175C38.7529 84.3225 44.4669 80.3425 49.9579 82.2125ZM123.529 82.2115C129.551 84.0005 131.009 92.1325 126.099 96.5465C119.911 102.11 110.177 95.9335 112.575 87.9655C114.026 83.1435 118.592 80.7455 123.529 82.2115ZM109.449 112.343C124.393 112.842 138.194 114.12 139.284 115.107C140.058 115.807 140.029 117.209 139.226 117.935C138.607 118.496 138.394 118.497 133.723 117.985C107.823 115.14 52.0739 116.275 32.6539 120.042C30.5539 120.449 29.6239 120.118 29.3049 118.85C28.8999 117.236 29.9819 116.416 33.1129 115.964C45.4949 114.176 69.9569 112.519 88.0349 112.243C90.6669 112.203 94.5429 112.142 96.6479 112.107C98.7529 112.072 104.514 112.178 109.449 112.343ZM98.4639 123.114C100.852 125.895 99.6509 126.273 87.6889 126.505C82.0899 126.613 76.1839 126.777 74.5649 126.868C70.6839 127.086 68.9419 125.509 71.0019 123.642C72.1969 122.559 97.5679 122.071 98.4639 123.114Z" fill="#FBC94B"/>
<path fill-rule="evenodd" clip-rule="evenodd" d="M82.621 6.61153C78.316 7.49953 76.778 9.49952 76.739 14.2615C76.65 24.9695 90.857 26.2525 92.181 15.6565C93.008 9.03853 89.042 5.28653 82.621 6.61153ZM10.616 21.7535C5.65303 23.2495 4.39703 30.7335 8.43203 34.7685C12.092 38.4285 18.921 37.5135 20.929 33.0945C23.809 26.7535 17.403 19.7085 10.616 21.7535ZM150.85 23.9765C146.702 26.0935 145.922 32.8535 149.411 36.4565C155.983 43.2455 166.619 34.4855 161.393 26.5875C159.538 23.7855 153.942 22.3995 150.85 23.9765ZM45.267 86.6435C42.723 87.7515 42.608 92.3815 45.092 93.6665C47.077 94.6925 49.643 93.9435 50.407 92.1145C51.989 88.3285 48.914 85.0555 45.267 86.6435ZM118.88 86.7245C116.205 88.0435 116.169 92.3175 118.82 93.6895C121.56 95.1055 124.558 93.2715 124.558 90.1785C124.558 87.0875 121.688 85.3415 118.88 86.7245Z" fill="#A4DAD2"/>
<path fill-rule="evenodd" clip-rule="evenodd" d="M81.7581 72.9795C74.9031 75.0885 74.1831 92.5005 80.8111 95.8905C86.7531 98.9305 91.2251 94.0125 91.2251 84.4365C91.2251 75.0705 87.9281 71.0805 81.7581 72.9795Z" fill="#F08B93"/>
<path fill-rule="evenodd" clip-rule="evenodd" d="M76.467 14.7395C76.467 15.3535 76.532 15.6055 76.613 15.2985C76.693 14.9915 76.693 14.4885 76.613 14.1815C76.532 13.8745 76.467 14.1255 76.467 14.7395ZM21.627 29.5725C21.629 30.6255 21.688 31.0175 21.759 30.4435C21.83 29.8705 21.829 29.0096 21.756 28.5306C21.683 28.0506 21.625 28.5195 21.627 29.5725ZM19.614 41.6935C19.176 41.9445 18.96 42.1526 19.136 42.1556C19.311 42.1596 19.67 42.0265 19.932 41.8605C20.287 41.6365 20.737 41.8625 21.687 42.7425L22.964 43.9265L21.703 42.5705C21.009 41.8255 20.435 41.2205 20.427 41.2265C20.419 41.2325 20.053 41.4425 19.614 41.6935ZM13.319 43.0395C13.804 43.1125 14.521 43.1105 14.914 43.0345C15.306 42.9585 14.909 42.8985 14.032 42.9015C13.155 42.9035 12.834 42.9655 13.319 43.0395ZM146.082 45.7605L143.538 48.3926L146.129 45.8875C148.42 43.6735 148.797 43.4235 149.378 43.7345C150.348 44.2535 150.689 44.1395 149.758 43.6075C149.319 43.3565 148.885 43.1466 148.793 43.1406C148.702 43.1346 147.482 44.3135 146.082 45.7605ZM12.417 52.2205C12.417 56.9565 12.462 58.9395 12.516 56.6255C12.57 54.3105 12.571 50.4355 12.516 48.0125C12.462 45.5895 12.418 47.4835 12.417 52.2205ZM152.469 44.5665C153.198 44.8205 155.124 44.8905 154.98 44.6575C154.894 44.5185 154.222 44.4165 153.487 44.4305C152.752 44.4445 152.294 44.5055 152.469 44.5665ZM155.303 54.9315C155.303 57.1245 155.354 58.0215 155.417 56.9245C155.479 55.8285 155.479 54.0345 155.417 52.9375C155.354 51.8415 155.303 52.7385 155.303 54.9315ZM107.501 59.2585C107.797 59.7965 108.323 60.5855 108.67 61.0135L109.301 61.7895L108.762 60.8115C108.465 60.2735 107.939 59.4835 107.592 59.0565L106.961 58.2806L107.501 59.2585ZM34.287 60.3535C34.662 60.8805 35.041 61.3106 35.128 61.3106C35.216 61.3106 34.981 60.8805 34.606 60.3535C34.232 59.8275 33.853 59.3975 33.765 59.3975C33.678 59.3975 33.913 59.8275 34.287 60.3535ZM58.988 62.6665L58.051 63.7035L59.088 62.7665C59.658 62.2515 60.125 61.7845 60.125 61.7295C60.125 61.4835 59.861 61.7005 58.988 62.6665ZM56.76 65.2185L55.499 66.5745L56.855 65.3135C58.116 64.1405 58.357 63.8625 58.116 63.8625C58.064 63.8625 57.454 64.4725 56.76 65.2185ZM38.74 65.8565C40.062 67.2645 40.348 67.5175 40.348 67.2785C40.348 67.2275 39.666 66.5455 38.833 65.7635L37.318 64.3415L38.74 65.8565ZM13.309 68.9665C13.309 69.5805 13.374 69.8315 13.455 69.5245C13.535 69.2175 13.535 68.7155 13.455 68.4085C13.374 68.1015 13.309 68.3525 13.309 68.9665ZM155.3 71.3585C155.301 73.2885 155.353 74.0365 155.417 73.0215C155.48 72.0065 155.479 70.4275 155.415 69.5125C155.351 68.5985 155.299 69.4285 155.3 71.3585ZM46.488 69.8325C46.971 69.9055 47.76 69.9055 48.243 69.8325C48.725 69.7595 48.33 69.6995 47.366 69.6995C46.401 69.6995 46.006 69.7595 46.488 69.8325ZM13.628 72.1565C13.628 72.7705 13.693 73.0215 13.774 72.7145C13.854 72.4075 13.854 71.9055 13.774 71.5975C13.693 71.2905 13.628 71.5425 13.628 72.1565ZM13.96 75.9835C13.96 76.7735 14.022 77.0965 14.098 76.7015C14.174 76.3065 14.174 75.6605 14.098 75.2665C14.022 74.8715 13.96 75.1945 13.96 75.9835ZM154.964 80.1305C154.964 81.2715 155.022 81.7375 155.092 81.1675C155.163 80.5975 155.163 79.6645 155.092 79.0945C155.022 78.5235 154.964 78.9905 154.964 80.1305ZM70.725 81.4065C70.725 82.0205 70.791 82.2715 70.871 81.9645C70.951 81.6575 70.951 81.1555 70.871 80.8485C70.791 80.5415 70.725 80.7925 70.725 81.4065ZM76.148 82.3635C76.148 82.9775 76.213 83.2285 76.294 82.9215C76.374 82.6145 76.374 82.1125 76.294 81.8055C76.213 81.4985 76.148 81.7495 76.148 82.3635ZM91.498 84.4365C91.497 86.0155 91.551 86.7025 91.618 85.9615C91.685 85.2215 91.685 83.9295 91.62 83.0905C91.554 82.2525 91.499 82.8575 91.498 84.4365ZM125.515 83.1015C125.515 83.1565 125.982 83.6225 126.552 84.1375L127.589 85.0745L126.652 84.0385C125.779 83.0715 125.515 82.8545 125.515 83.1015ZM14.279 84.9155C14.279 85.7045 14.341 86.0275 14.417 85.6335C14.493 85.2385 14.493 84.5925 14.417 84.1975C14.341 83.8025 14.279 84.1255 14.279 84.9155ZM154.623 85.3935C154.627 86.0955 154.692 86.3455 154.768 85.9485C154.844 85.5515 154.842 84.9775 154.762 84.6725C154.682 84.3675 154.619 84.6925 154.623 85.3935ZM39.834 85.7225C39.543 86.1665 39.363 86.5885 39.434 86.6595C39.504 86.7305 39.804 86.3665 40.1 85.8515C40.758 84.7045 40.563 84.6105 39.834 85.7225ZM112.32 88.7715C112.209 89.3265 112.136 90.2285 112.157 90.7765C112.18 91.3705 112.308 91.0075 112.472 89.8815C112.765 87.8695 112.658 87.0825 112.32 88.7715ZM38.855 90.0195C38.855 91.1595 38.913 91.6255 38.984 91.0555C39.055 90.4855 39.055 89.5525 38.984 88.9825C38.913 88.4125 38.855 88.8785 38.855 90.0195ZM154.298 89.7005C154.298 90.3145 154.363 90.5655 154.443 90.2585C154.524 89.9515 154.524 89.4485 154.443 89.1415C154.363 88.8345 154.298 89.0865 154.298 89.7005ZM116.664 90.1785C116.668 90.8805 116.733 91.1295 116.81 90.7335C116.886 90.3365 116.883 89.7625 116.803 89.4575C116.723 89.1525 116.661 89.4765 116.664 90.1785ZM54.383 94.0675C54.383 94.2475 53.78 95.0965 53.042 95.9545C52.305 96.8135 52.104 97.1565 52.595 96.7175C53.757 95.6805 54.824 94.1815 54.577 93.9345C54.47 93.8275 54.383 93.8875 54.383 94.0675ZM114.67 96.2395C115.265 96.8535 115.824 97.3555 115.912 97.3555C115.999 97.3555 115.584 96.8535 114.989 96.2395C114.394 95.6255 113.835 95.1225 113.748 95.1225C113.66 95.1225 114.075 95.6255 114.67 96.2395ZM153.66 96.3985C153.66 97.0125 153.725 97.2635 153.805 96.9565C153.886 96.6495 153.886 96.1475 153.805 95.8405C153.725 95.5335 153.66 95.7845 153.66 96.3985ZM15.867 98.1535C15.871 98.8545 15.936 99.1045 16.012 98.7075C16.088 98.3105 16.086 97.7365 16.006 97.4315C15.926 97.1265 15.863 97.4515 15.867 98.1535ZM75.276 98.9505C75.961 99.6525 76.594 100.227 76.682 100.227C76.769 100.227 76.28 99.6525 75.595 98.9505C74.91 98.2485 74.278 97.6745 74.19 97.6745C74.102 97.6745 74.591 98.2485 75.276 98.9505ZM92.023 99.1095C91.248 99.8995 90.686 100.546 90.773 100.546C90.861 100.546 91.567 99.8995 92.342 99.1095C93.116 98.3205 93.679 97.6745 93.591 97.6745C93.503 97.6745 92.797 98.3205 92.023 99.1095ZM153.341 99.2695C153.341 99.8835 153.406 100.135 153.487 99.8275C153.567 99.5205 153.567 99.0185 153.487 98.7115C153.406 98.4045 153.341 98.6555 153.341 99.2695ZM16.197 102.619C16.199 103.496 16.261 103.817 16.334 103.333C16.408 102.848 16.406 102.13 16.33 101.738C16.254 101.345 16.194 101.742 16.197 102.619ZM153.035 104.055C153.035 104.844 153.097 105.167 153.173 104.772C153.249 104.378 153.249 103.732 153.173 103.337C153.097 102.942 153.035 103.265 153.035 104.055ZM16.499 107.244C16.499 107.858 16.564 108.11 16.644 107.803C16.725 107.496 16.725 106.993 16.644 106.686C16.564 106.379 16.499 106.63 16.499 107.244ZM152.74 109.158C152.74 110.65 152.795 111.26 152.862 110.514C152.929 109.768 152.929 108.548 152.862 107.803C152.795 107.057 152.74 107.667 152.74 109.158ZM16.818 111.072C16.818 111.686 16.883 111.937 16.963 111.63C17.044 111.323 17.044 110.821 16.963 110.514C16.883 110.207 16.818 110.458 16.818 111.072ZM95.276 112.266C96.802 112.325 99.386 112.325 101.018 112.267C102.649 112.209 101.401 112.161 98.243 112.161C95.085 112.161 93.75 112.208 95.276 112.266ZM79.662 112.584C80.671 112.647 82.322 112.647 83.33 112.584C84.339 112.521 83.514 112.469 81.496 112.469C79.479 112.469 78.653 112.521 79.662 112.584ZM110.454 112.584C111.381 112.648 112.817 112.648 113.644 112.582C114.472 112.517 113.713 112.464 111.959 112.465C110.204 112.465 109.527 112.519 110.454 112.584ZM71.847 112.898C72.417 112.969 73.35 112.969 73.921 112.898C74.491 112.827 74.024 112.769 72.884 112.769C71.743 112.769 71.277 112.827 71.847 112.898ZM118.263 112.896C118.748 112.969 119.466 112.967 119.858 112.892C120.25 112.816 119.854 112.756 118.976 112.758C118.099 112.761 117.778 112.823 118.263 112.896ZM65.141 113.216C65.708 113.287 66.713 113.288 67.374 113.219C68.036 113.15 67.573 113.092 66.345 113.091C65.117 113.089 64.575 113.146 65.141 113.216ZM123.207 113.212C123.603 113.288 124.177 113.285 124.482 113.205C124.787 113.125 124.463 113.063 123.761 113.066C123.059 113.07 122.81 113.135 123.207 113.212ZM59.89 113.534C60.375 113.607 61.092 113.605 61.485 113.53C61.877 113.454 61.48 113.394 60.603 113.396C59.726 113.399 59.405 113.461 59.89 113.534ZM127.034 113.531C127.431 113.607 128.005 113.604 128.31 113.524C128.615 113.444 128.291 113.382 127.589 113.385C126.887 113.389 126.638 113.454 127.034 113.531ZM55.105 113.853C55.59 113.926 56.308 113.924 56.7 113.849C57.092 113.773 56.696 113.713 55.818 113.715C54.941 113.718 54.62 113.78 55.105 113.853ZM130.22 113.849C130.615 113.925 131.261 113.925 131.656 113.849C132.051 113.773 131.728 113.711 130.938 113.711C130.149 113.711 129.826 113.773 130.22 113.849ZM51.114 114.168C51.508 114.244 52.154 114.244 52.549 114.168C52.944 114.092 52.621 114.03 51.831 114.03C51.042 114.03 50.719 114.092 51.114 114.168ZM46.807 114.49C47.29 114.564 48.079 114.564 48.562 114.49C49.044 114.417 48.649 114.358 47.684 114.358C46.72 114.358 46.325 114.417 46.807 114.49ZM136.121 114.482C136.429 114.562 136.931 114.562 137.238 114.482C137.545 114.402 137.294 114.336 136.68 114.336C136.066 114.336 135.814 114.402 136.121 114.482ZM43.781 114.807C44.177 114.883 44.752 114.88 45.057 114.8C45.362 114.72 45.037 114.658 44.335 114.661C43.633 114.665 43.384 114.73 43.781 114.807ZM40.591 115.126C40.988 115.202 41.562 115.199 41.867 115.119C42.172 115.039 41.847 114.977 41.145 114.98C40.444 114.984 40.194 115.049 40.591 115.126ZM17.136 116.176C17.136 116.79 17.202 117.041 17.282 116.734C17.363 116.427 17.363 115.925 17.282 115.618C17.202 115.311 17.136 115.562 17.136 116.176ZM37.876 115.439C38.183 115.519 38.685 115.519 38.992 115.439C39.299 115.359 39.048 115.293 38.434 115.293C37.82 115.293 37.569 115.359 37.876 115.439ZM152.414 117.292C152.416 118.52 152.473 118.984 152.542 118.322C152.612 117.66 152.61 116.655 152.54 116.089C152.469 115.523 152.413 116.064 152.414 117.292ZM35.324 115.758C35.631 115.838 36.133 115.838 36.44 115.758C36.747 115.678 36.496 115.612 35.882 115.612C35.268 115.612 35.017 115.678 35.324 115.758ZM94.316 116.095C96.543 116.15 100.275 116.15 102.61 116.095C104.945 116.041 103.123 115.996 98.562 115.996C94 115.996 92.09 116.04 94.316 116.095ZM80.153 116.412C81.256 116.475 82.979 116.474 83.981 116.411C84.983 116.348 84.08 116.297 81.975 116.298C79.869 116.298 79.05 116.35 80.153 116.412ZM111.72 116.409C112.465 116.477 113.685 116.477 114.431 116.409C115.177 116.342 114.566 116.287 113.075 116.287C111.584 116.287 110.974 116.342 111.72 116.409ZM71.856 116.729C72.606 116.796 73.754 116.795 74.407 116.727C75.061 116.658 74.447 116.603 73.043 116.604C71.64 116.605 71.105 116.661 71.856 116.729ZM118.411 116.725C118.977 116.796 119.982 116.797 120.644 116.728C121.306 116.659 120.842 116.601 119.614 116.599C118.386 116.598 117.845 116.655 118.411 116.725ZM64.83 117.047C65.575 117.115 66.795 117.115 67.541 117.047C68.287 116.98 67.677 116.925 66.185 116.925C64.694 116.925 64.084 116.98 64.83 117.047ZM123.362 117.042C123.845 117.115 124.634 117.115 125.117 117.042C125.599 116.969 125.204 116.909 124.24 116.909C123.275 116.909 122.88 116.969 123.362 117.042ZM59.247 117.361C59.73 117.434 60.519 117.434 61.002 117.361C61.484 117.288 61.09 117.228 60.125 117.228C59.16 117.228 58.765 117.288 59.247 117.361ZM127.513 117.362C127.998 117.435 128.716 117.433 129.108 117.357C129.501 117.282 129.104 117.222 128.227 117.224C127.35 117.226 127.029 117.288 127.513 117.362ZM54.941 117.683C55.511 117.753 56.444 117.753 57.015 117.683C57.585 117.612 57.118 117.554 55.978 117.554C54.838 117.554 54.371 117.612 54.941 117.683ZM131.181 117.677C131.578 117.754 132.152 117.751 132.457 117.671C132.762 117.591 132.437 117.529 131.736 117.532C131.034 117.536 130.784 117.601 131.181 117.677ZM50.795 118.001C51.365 118.072 52.298 118.072 52.868 118.001C53.438 117.931 52.972 117.873 51.831 117.873C50.691 117.873 50.224 117.931 50.795 118.001ZM134.052 117.996C134.449 118.073 135.023 118.07 135.328 117.99C135.633 117.91 135.308 117.848 134.606 117.851C133.905 117.855 133.655 117.92 134.052 117.996ZM47.131 118.319C47.616 118.392 48.333 118.39 48.726 118.314C49.118 118.239 48.721 118.179 47.844 118.181C46.967 118.183 46.646 118.245 47.131 118.319ZM43.777 118.634C44.172 118.71 44.818 118.71 45.212 118.634C45.607 118.558 45.284 118.496 44.495 118.496C43.705 118.496 43.382 118.558 43.777 118.634ZM40.587 118.953C40.982 119.029 41.628 119.029 42.023 118.953C42.417 118.877 42.094 118.815 41.305 118.815C40.515 118.815 40.192 118.877 40.587 118.953ZM37.557 119.267C37.864 119.347 38.366 119.347 38.673 119.267C38.98 119.186 38.729 119.121 38.115 119.121C37.501 119.121 37.25 119.186 37.557 119.267ZM29.962 119.82C30.303 120.097 30.949 120.308 31.398 120.29C32.148 120.26 32.135 120.238 31.229 120.022C30.688 119.892 30.042 119.681 29.794 119.552C29.546 119.424 29.622 119.544 29.962 119.82ZM152.086 122.236C152.086 123.201 152.146 123.596 152.219 123.114C152.292 122.631 152.292 121.842 152.219 121.359C152.146 120.877 152.086 121.272 152.086 122.236ZM83.504 122.793C84.872 122.853 87.025 122.852 88.289 122.792C89.553 122.732 88.434 122.683 85.803 122.683C83.171 122.683 82.137 122.733 83.504 122.793ZM73.283 123.107C73.94 123.176 75.017 123.176 75.675 123.107C76.333 123.038 75.795 122.982 74.479 122.982C73.163 122.982 72.625 123.038 73.283 123.107ZM151.746 125.745C151.746 126.359 151.811 126.61 151.892 126.303C151.972 125.996 151.972 125.494 151.892 125.187C151.811 124.88 151.746 125.131 151.746 125.745ZM71.111 126.519C71.451 126.795 72.241 127.003 72.865 126.981L74 126.941L72.724 126.731C72.023 126.615 71.233 126.407 70.97 126.269C70.707 126.13 70.77 126.243 71.111 126.519ZM90.986 126.301C92.258 126.362 94.339 126.362 95.611 126.301C96.883 126.24 95.842 126.191 93.299 126.191C90.755 126.191 89.714 126.24 90.986 126.301ZM79.327 126.62C80.853 126.679 83.437 126.679 85.069 126.621C86.7 126.563 85.452 126.515 82.294 126.515C79.136 126.515 77.801 126.562 79.327 126.62ZM151.286 128.517C151.184 128.906 150.783 129.262 150.353 129.343C149.671 129.472 149.664 129.49 150.277 129.53C151.045 129.579 151.8 128.84 151.598 128.236C151.524 128.012 151.386 128.136 151.286 128.517ZM18.667 130.411C18.652 130.979 19.527 131.554 20.157 131.391C20.617 131.271 20.592 131.235 20.029 131.205C19.643 131.185 19.181 130.917 19.002 130.61C18.823 130.303 18.672 130.213 18.667 130.411ZM142.82 130.431C143.127 130.511 143.629 130.511 143.936 130.431C144.243 130.351 143.992 130.285 143.378 130.285C142.764 130.285 142.513 130.351 142.82 130.431ZM137.561 131.074C137.957 131.151 138.532 131.148 138.837 131.068C139.142 130.988 138.817 130.926 138.115 130.929C137.413 130.933 137.164 130.998 137.561 131.074ZM134.052 131.393C134.449 131.47 135.023 131.467 135.328 131.387C135.633 131.307 135.308 131.245 134.606 131.248C133.905 131.252 133.655 131.317 134.052 131.393ZM130.061 131.715C130.543 131.788 131.333 131.788 131.815 131.715C132.298 131.642 131.903 131.582 130.938 131.582C129.973 131.582 129.578 131.642 130.061 131.715ZM123.211 132.04C123.962 132.107 125.11 132.106 125.763 132.038C126.416 131.969 125.803 131.914 124.399 131.915C122.995 131.916 122.461 131.972 123.211 132.04ZM107.892 132.356C108.462 132.426 109.395 132.426 109.965 132.356C110.535 132.285 110.069 132.227 108.929 132.227C107.788 132.227 107.322 132.285 107.892 132.356ZM28.944 132.664C29.251 132.744 29.754 132.744 30.061 132.664C30.368 132.583 30.117 132.518 29.503 132.518C28.889 132.518 28.637 132.583 28.944 132.664ZM102.794 132.675C103.367 132.746 104.228 132.744 104.708 132.672C105.187 132.599 104.718 132.541 103.665 132.543C102.613 132.544 102.221 132.604 102.794 132.675ZM31.978 132.988C32.375 133.065 32.949 133.062 33.254 132.982C33.559 132.902 33.235 132.84 32.533 132.843C31.831 132.847 31.582 132.912 31.978 132.988ZM95.93 132.997C96.763 133.063 98.127 133.063 98.96 132.997C99.794 132.932 99.112 132.878 97.445 132.878C95.779 132.878 95.097 132.932 95.93 132.997ZM34.846 133.307C35.24 133.383 35.886 133.383 36.281 133.307C36.676 133.231 36.353 133.169 35.563 133.169C34.774 133.169 34.451 133.231 34.846 133.307ZM61.002 133.312C61.572 133.383 62.505 133.383 63.075 133.312C63.645 133.242 63.179 133.184 62.039 133.184C60.898 133.184 60.432 133.242 61.002 133.312ZM83.66 133.317C84.587 133.382 86.022 133.381 86.85 133.316C87.677 133.25 86.919 133.197 85.165 133.198C83.41 133.199 82.733 133.253 83.66 133.317ZM38.514 133.633C39.172 133.702 40.248 133.702 40.906 133.633C41.564 133.564 41.026 133.508 39.71 133.508C38.394 133.508 37.856 133.564 38.514 133.633ZM49.375 133.638C50.918 133.697 53.359 133.697 54.797 133.638C56.236 133.579 54.973 133.531 51.991 133.531C49.008 133.532 47.831 133.58 49.375 133.638ZM70.252 133.639C72.226 133.695 75.456 133.695 77.429 133.639C79.403 133.583 77.788 133.537 73.841 133.537C69.893 133.537 68.279 133.583 70.252 133.639Z" fill="#98762C"/>
</svg>
