<svg width="740" height="1107" viewBox="0 0 740 1107" fill="none" xmlns="http://www.w3.org/2000/svg">
<path fill-rule="evenodd" clip-rule="evenodd" d="M422.339 0.92145C416.289 1.33045 394.014 2.19245 372.839 2.83545C336.093 3.95245 317.589 4.67646 268.401 6.92046C244.454 8.01346 243.618 8.24445 242.447 14.1005C241.972 16.4785 242.544 18.4795 244.891 22.6375C250.078 31.8285 250.097 32.0354 246.262 37.4294C242.302 42.9994 241.916 46.8655 244.843 51.6655C247.276 55.6565 247.289 55.8755 245.089 55.9545C243.732 56.0045 243.838 56.2185 245.558 56.9115L247.778 57.8044L244.719 63.5974C241.021 70.6024 241.21 74.0585 245.707 81.6745L248.826 86.9585L245.333 92.0374C243.411 94.8304 241.839 97.6794 241.839 98.3674C241.839 99.0554 243.058 100.837 244.548 102.327C247.159 104.938 247.547 105.016 255.298 104.482C259.72 104.177 269.864 103.684 277.839 103.386C351.877 100.623 396.928 98.7174 410.339 97.7794C419.139 97.1634 432.493 96.5975 440.013 96.5215C453.12 96.3875 453.799 96.2784 456.355 93.8864C461.119 89.4304 461.232 88.4344 457.771 81.4044L454.603 74.9704L457.66 69.5555C460.703 64.1635 460.71 64.1134 459.313 58.2654C457.509 50.7094 457.496 50.8915 459.839 50.8915C460.939 50.8915 461.839 50.4415 461.839 49.8915C461.839 49.3415 460.963 48.8915 459.892 48.8915C458.075 48.8915 458.149 48.4545 460.998 42.3655C464.581 34.7085 464.385 31.7204 459.827 24.5334L456.84 19.8235L459.339 14.8904C462.48 8.69344 462.535 4.89345 459.525 2.06545C457.394 0.0644474 456.259 -0.0975432 445.275 0.0344568C438.71 0.112457 428.389 0.51245 422.339 0.92145ZM698.35 85.2744C697.27 88.9964 695.839 98.8784 695.839 102.615C695.839 105.03 695.406 110.017 694.876 113.698C693.515 123.152 689.552 177.685 689.738 184.391C689.769 185.491 689.362 188.866 688.834 191.891C687.018 202.293 687.907 262.305 689.972 268.716C690.562 270.545 690.831 273.152 690.571 274.511C690.312 275.87 690.709 284.499 691.455 293.686C693.563 319.636 693.642 320.691 694.371 332.641C694.749 338.829 695.431 343.891 695.888 343.891C696.345 343.891 696.769 350.079 696.831 357.641C696.893 365.204 697.163 372.741 697.43 374.391C697.698 376.041 698.1 381.441 698.324 386.391C699.256 406.971 699.851 417.079 700.857 429.391C701.441 436.541 702.141 450.266 702.413 459.891C702.685 469.516 703.108 477.969 703.355 478.675C703.601 479.381 704.043 485.231 704.336 491.675C704.63 498.119 705.078 505.191 705.332 507.391C706.315 515.921 706.904 530.887 708.339 583.891C708.962 606.884 709.801 631.917 710.315 642.891C710.586 648.666 711.064 663.291 711.377 675.391C711.691 687.491 712.177 700.541 712.459 704.391C713.386 717.078 713.758 724.216 714.255 738.891C714.525 746.866 715 759.916 715.309 767.891C715.618 775.866 716.075 790.266 716.325 799.891C717.235 834.967 717.972 856.469 718.381 859.891C719.544 869.616 719.507 886.184 718.287 901.891C716.259 928.003 714.909 951.312 714.289 970.891C713.985 980.516 713.56 991.091 713.345 994.391C713.129 997.691 712.722 1004.44 712.439 1009.39C711.676 1022.75 710.966 1032.83 710.433 1037.89C710.173 1040.37 709.655 1045.32 709.283 1048.89C708.91 1052.47 708.4 1056.29 708.149 1057.39C707.897 1058.49 707.387 1062.99 707.015 1067.39L706.339 1075.39L695.839 1075.33C679.476 1075.24 643.118 1075.19 635.089 1075.24C631.102 1075.27 627.839 1075.55 627.839 1075.87C627.839 1076.19 624.665 1076.55 620.785 1076.67C616.905 1076.78 612.813 1077.37 611.691 1077.97C610.57 1078.57 608.532 1078.78 607.162 1078.44C605.558 1078.03 604.9 1078.18 605.314 1078.85C605.668 1079.42 605.593 1079.9 605.148 1079.9C604.703 1079.9 600.514 1080.34 595.839 1080.86C591.164 1081.39 578.789 1082.52 568.339 1083.37C557.889 1084.22 548.079 1085.13 546.539 1085.39C544.869 1085.67 543.982 1085.47 544.341 1084.89C544.672 1084.35 544.357 1084.1 543.641 1084.32C542.925 1084.55 532.439 1085 520.339 1085.33C508.239 1085.65 492.264 1086.23 484.839 1086.61C466.207 1087.56 423.703 1087.55 397.498 1086.59C382.274 1086.03 375.853 1086.11 376.307 1086.84C376.664 1087.42 376.48 1087.89 375.898 1087.89C375.316 1087.89 374.839 1087.39 374.839 1086.78C374.839 1086.18 374.219 1085.92 373.461 1086.21C372.703 1086.5 371.69 1086.37 371.211 1085.91C370.731 1085.46 363.814 1084.82 355.839 1084.48C347.864 1084.14 339.989 1083.65 338.339 1083.39C335.706 1082.97 322.259 1082.07 292.839 1080.31C288.164 1080.04 279.164 1079.46 272.839 1079.02C266.514 1078.59 256.614 1078.35 250.839 1078.49C245.064 1078.63 234.714 1078.29 227.839 1077.72C208.976 1076.17 152.38 1076.55 97.8392 1078.59C86.0142 1079.03 65.3142 1079.39 51.8392 1079.39C31.0302 1079.39 27.2372 1079.62 26.6592 1080.89C25.6222 1083.18 25.7172 1091.79 26.8012 1093.82C29.1602 1098.23 29.5132 1098.24 114.763 1097.48C211.04 1096.63 225.139 1097.04 372.839 1104.93C415.77 1107.22 479.676 1107.24 531.839 1104.98C558.514 1103.83 584.164 1102.43 588.839 1101.89C593.514 1101.34 603.381 1100.21 610.765 1099.38C618.15 1098.55 626.925 1097.44 630.265 1096.91C644.037 1094.73 670.112 1093.66 695.101 1094.24C710.571 1094.59 721.865 1094.45 723.369 1093.88C724.747 1093.36 726.282 1091.86 726.779 1090.55C727.277 1089.24 728.383 1079.44 729.237 1068.78C731.712 1037.88 734.675 996.421 735.341 983.391C735.679 976.791 736.591 963.066 737.37 952.891C740.391 913.406 740.31 890.452 736.812 794.391C734.749 737.748 733.877 714.149 732.435 675.891C731.616 654.166 730.443 620.191 729.827 600.391C729.212 580.591 728.067 551.116 727.282 534.891C725.946 507.259 725.246 495.606 721.282 435.141C720.426 422.079 719.092 400.366 718.318 386.891C716.945 362.998 713.79 317.495 711.834 293.391C707.328 237.846 708.695 205.364 719.839 103.221C721.113 91.5354 721.098 90.6275 719.589 88.5665C717.727 86.0245 698.976 83.1174 698.35 85.2744ZM305.589 1083.55C306.277 1083.83 306.839 1084.74 306.839 1085.58C306.839 1086.56 307.405 1086.89 308.421 1086.5C309.291 1086.16 310.368 1085.89 310.814 1085.89C311.26 1085.89 311.884 1085.22 312.201 1084.39C312.659 1083.2 311.915 1082.91 308.558 1082.97C306.237 1083.01 304.902 1083.28 305.589 1083.55ZM684.854 1087.75C684.844 1088.69 684.085 1088.92 682.366 1088.49C680.426 1088 680.018 1088.19 680.473 1089.38C680.806 1090.25 682.286 1090.89 683.946 1090.89C687.021 1090.89 687.395 1090.3 685.839 1087.89C685.09 1086.73 684.866 1086.7 684.854 1087.75ZM690.28 1090.42C692.78 1092.31 694.839 1092.3 694.839 1090.39C694.839 1089.36 693.825 1088.9 691.589 1088.92C688.515 1088.95 688.444 1089.03 690.28 1090.42Z" fill="#8CC0FA"/>
<path fill-rule="evenodd" clip-rule="evenodd" d="M461.839 50.0375C461.839 50.5075 460.939 50.8915 459.839 50.8915C457.496 50.8915 457.509 50.7095 459.313 58.2655C460.71 64.1135 460.703 64.1635 457.66 69.5555L454.603 74.9705L457.771 81.4045C461.232 88.4345 461.119 89.4305 456.355 93.8865C453.799 96.2785 453.12 96.3875 440.013 96.5215C432.493 96.5975 419.139 97.1635 410.339 97.7795C396.928 98.7175 351.877 100.623 277.839 103.386C269.864 103.684 259.72 104.177 255.298 104.482C247.547 105.016 247.159 104.938 244.548 102.327C243.058 100.837 241.839 99.0555 241.839 98.3675C241.839 97.6795 243.411 94.8305 245.333 92.0375L248.826 86.9585L245.707 81.6745C241.211 74.0595 241.022 70.6015 244.716 63.6035L247.772 57.8165L245.412 56.9195C243.255 56.0995 208.04 57.9595 198.839 59.3805C196.914 59.6775 187.689 60.5655 178.339 61.3545C157.622 63.1015 124.334 66.6125 116.839 67.8405C113.814 68.3365 108.639 69.0155 105.339 69.3495C102.039 69.6835 92.814 70.8255 84.839 71.8885C76.864 72.9505 62.914 74.7375 53.839 75.8595C16.362 80.4945 14.066 80.9565 10.696 84.5435C8.518 86.8615 8.348 88.0525 7.668 105.695C5.296 167.222 4.448 194.426 4.397 210.54C4.365 220.521 4.08601 228.534 3.77701 228.346C3.05601 227.909 0.969002 284.215 0.199002 324.891C-0.255998 348.928 0.0350062 364.328 1.42801 389.891C2.95301 417.905 3.26401 440.34 3.32701 526.891C3.39601 620.916 3.616 634.557 5.731 675.891C8.153 723.213 8.19 764.147 5.85 805.891C4.355 832.56 4.62601 906.394 6.29901 928.287C10.468 982.836 12.805 1027.68 12.825 1053.49C12.833 1063.51 13.308 1072.94 13.889 1074.6C15.043 1077.91 18.375 1079.89 22.803 1079.89C24.381 1079.89 25.899 1080.45 26.177 1081.14C26.522 1082 26.706 1081.92 26.76 1080.89C26.828 1079.6 30.291 1079.39 51.589 1079.39C65.202 1079.39 86.014 1079.03 97.839 1078.59C152.38 1076.55 208.976 1076.17 227.839 1077.72C234.714 1078.29 245.064 1078.63 250.839 1078.49C256.614 1078.35 266.514 1078.59 272.839 1079.02C279.164 1079.46 288.164 1080.04 292.839 1080.31C322.259 1082.07 335.706 1082.97 338.339 1083.39C339.989 1083.65 347.864 1084.14 355.839 1084.48C363.814 1084.82 370.731 1085.46 371.211 1085.91C371.69 1086.37 372.703 1086.5 373.461 1086.21C374.219 1085.92 374.839 1086.18 374.839 1086.78C374.839 1087.39 375.316 1087.89 375.898 1087.89C376.48 1087.89 376.664 1087.42 376.307 1086.84C375.853 1086.11 382.274 1086.03 397.498 1086.59C423.703 1087.55 466.207 1087.56 484.839 1086.61C492.264 1086.23 508.239 1085.65 520.339 1085.33C532.439 1085 542.925 1084.55 543.641 1084.32C544.357 1084.1 544.672 1084.35 544.341 1084.89C543.982 1085.47 544.869 1085.67 546.539 1085.39C548.079 1085.13 557.889 1084.22 568.339 1083.37C578.789 1082.52 591.164 1081.39 595.839 1080.86C600.514 1080.34 604.703 1079.9 605.148 1079.9C605.593 1079.9 605.668 1079.42 605.314 1078.85C604.9 1078.18 605.558 1078.03 607.162 1078.44C608.532 1078.78 610.57 1078.57 611.691 1077.97C612.813 1077.37 616.905 1076.78 620.785 1076.67C624.665 1076.55 627.839 1076.19 627.839 1075.87C627.839 1075.55 631.102 1075.27 635.089 1075.24C643.118 1075.19 679.476 1075.24 695.839 1075.33L706.339 1075.39L707.015 1067.39C707.387 1062.99 707.897 1058.49 708.149 1057.39C708.4 1056.29 708.91 1052.47 709.283 1048.89C709.655 1045.32 710.173 1040.37 710.433 1037.89C710.966 1032.83 711.676 1022.75 712.439 1009.39C712.722 1004.44 713.129 997.691 713.345 994.391C713.56 991.091 713.985 980.516 714.289 970.891C714.909 951.312 716.259 928.003 718.287 901.891C719.507 886.184 719.544 869.616 718.381 859.891C717.972 856.469 717.235 834.967 716.325 799.891C716.075 790.266 715.618 775.866 715.309 767.891C715 759.916 714.525 746.866 714.255 738.891C713.758 724.216 713.386 717.078 712.459 704.391C712.177 700.541 711.691 687.491 711.377 675.391C711.064 663.291 710.586 648.666 710.315 642.891C709.801 631.917 708.962 606.884 708.339 583.891C706.904 530.887 706.315 515.921 705.332 507.391C705.078 505.191 704.63 498.119 704.336 491.675C704.043 485.231 703.601 479.381 703.355 478.675C703.108 477.969 702.685 469.516 702.413 459.891C702.141 450.266 701.441 436.541 700.857 429.391C699.851 417.079 699.256 406.971 698.324 386.391C698.1 381.441 697.698 376.041 697.43 374.391C697.163 372.741 696.893 365.204 696.831 357.641C696.769 350.079 696.345 343.891 695.888 343.891C695.431 343.891 694.749 338.829 694.371 332.641C693.642 320.691 693.563 319.637 691.455 293.687C690.709 284.5 690.312 275.87 690.571 274.511C690.831 273.152 690.562 270.546 689.972 268.717C687.907 262.306 687.018 202.293 688.834 191.891C689.362 188.866 689.769 185.491 689.738 184.391C689.552 177.685 693.515 123.153 694.876 113.699C695.406 110.018 695.867 104.842 695.901 102.198C695.935 99.5545 696.529 94.4665 697.222 90.8915C698.281 85.4265 698.789 84.4265 700.41 84.6125C701.471 84.7335 701.801 84.5925 701.144 84.2975C700.339 83.9365 700.132 82.2095 700.512 79.0055C701.139 73.7125 699.22 68.7005 695.882 66.9145C690.538 64.0545 659.606 60.0175 607.839 55.4235C585.702 53.4595 551.202 51.6205 544.471 52.0465C541.476 52.2365 539.204 52.1045 539.422 51.7535C539.64 51.4025 528.686 50.8405 515.079 50.5035C501.472 50.1665 483.926 49.7315 476.089 49.5365C468.252 49.3425 461.839 49.5675 461.839 50.0375ZM305.589 1083.55C306.277 1083.83 306.839 1084.74 306.839 1085.58C306.839 1086.56 307.405 1086.89 308.421 1086.5C309.291 1086.16 310.368 1085.89 310.814 1085.89C311.26 1085.89 311.884 1085.22 312.201 1084.39C312.659 1083.2 311.915 1082.91 308.558 1082.97C306.237 1083.01 304.902 1083.28 305.589 1083.55ZM684.854 1087.75C684.844 1088.69 684.085 1088.92 682.366 1088.49C680.426 1088 680.018 1088.19 680.473 1089.38C680.806 1090.25 682.286 1090.89 683.946 1090.89C687.021 1090.89 687.395 1090.3 685.839 1087.89C685.09 1086.73 684.866 1086.7 684.854 1087.75ZM690.28 1090.42C692.78 1092.31 694.839 1092.3 694.839 1090.39C694.839 1089.36 693.825 1088.9 691.589 1088.92C688.515 1088.95 688.444 1089.03 690.28 1090.42Z" fill="#F8FAF4"/>
<rect x="303.839" y="1082.89" width="10" height="6" fill="#8CC0FA"/>
<rect x="676.839" y="1085.89" width="23" height="7" fill="#8CC0FA"/>
</svg>
