<svg width="1294" height="636" viewBox="0 0 1294 636" fill="none" xmlns="http://www.w3.org/2000/svg">
<rect x="1263.05" y="105" width="19" height="503" fill="#F8FAF4"/>
<path fill-rule="evenodd" clip-rule="evenodd" d="M1227.25 1.2C1226.59 1.86 1226.05 3.94999 1226.05 5.84399V9.28799L1210.8 8.668C1152.93 6.313 1111.58 5.744 1064.05 6.64799C1030.99 7.277 985.578 7.257 932.549 6.591C772.674 4.581 233.988 5.648 162.049 8.117C145.824 8.673 116.124 9.711 96.0488 10.423C75.9738 11.135 59.2108 11.529 58.7988 11.3C58.3868 11.07 58.0488 9.98601 58.0488 8.89101C58.0488 5.04901 55.1698 1 52.4368 1C50.3128 1 49.5168 1.852 47.7648 6C46.0188 10.131 45.2088 11.003 43.1008 11.016C41.6968 11.025 35.3738 11.461 29.0488 11.987C9.97081 13.571 3.04881 16.75 3.04881 23.929C3.04881 26.692 5.01681 30.662 11.6628 41.308C19.1928 53.367 20.1978 55.506 19.6408 58.29C19.2908 60.042 15.8068 67.86 11.8988 75.663C6.63281 86.18 4.95281 90.482 5.40681 92.291C5.74381 93.634 8.50081 96.852 11.5338 99.443C17.3348 104.399 18.2558 106.931 15.8508 111.316C15.1928 112.517 14.3328 118.45 13.9418 124.5C13.5498 130.55 12.2688 142.7 11.0958 151.5C5.96181 190.005 5.80382 192.888 5.55582 253C5.30782 312.802 5.99281 353.031 7.89581 390.5C8.50981 402.6 9.48882 423.75 10.0708 437.5C10.6518 451.25 11.5488 471.5 12.0628 482.5C12.8478 499.309 14.3678 538.554 15.5108 571.512C15.7218 577.573 16.3068 580.374 17.9148 583.012C19.0848 584.931 20.0428 587.278 20.0448 588.229C20.0468 589.181 16.4008 595.706 11.9418 602.729C-1.05119 623.196 -2.02919 626.013 2.34081 630.383C4.47681 632.518 5.75581 632.724 21.0128 633.376C30.0218 633.761 57.9028 633.779 82.9708 633.415C108.039 633.052 174.899 633.271 231.549 633.902C349 635.21 1198.84 636.533 1235.99 635.466L1260.44 634.763L1263.24 631.959C1265.79 629.414 1266.05 628.497 1266.05 622.077V615L1273.8 614.923C1283.37 614.828 1288.75 613.284 1291.27 609.909C1293.15 607.382 1293.2 604.201 1293.14 471.411C1293.1 396.66 1292.62 318.625 1292.06 298C1289.77 213.236 1289.03 164.064 1289.65 139C1290.59 101.157 1290.09 100 1272.99 100H1263.21L1262.68 97.25C1261.43 90.728 1260.91 66.401 1261.97 63.666C1262.83 61.428 1262.72 60.119 1261.45 57.436C1259.27 52.834 1260.73 46.965 1267.15 34.507C1269.84 29.275 1272.05 23.848 1272.05 22.448C1272.05 18.719 1269.58 14.563 1266.54 13.179C1263.16 11.637 1252.22 10.045 1244.84 10.02C1240.27 10.004 1238.72 9.563 1237.09 7.811C1235.97 6.608 1235.05 5.258 1235.05 4.811C1235.05 3.517 1231.17 0 1229.75 0C1229.03 0 1227.91 0.539997 1227.25 1.2ZM469.549 16.061C244.644 17.657 122.043 18.934 96.5488 19.946C82.2488 20.513 62.2238 21.006 52.0488 21.041C29.6168 21.119 14.0488 22.858 14.0488 25.286C14.0488 26.405 23.2328 42.235 27.7098 48.833C30.3308 52.694 30.7488 57.542 28.6678 59.921C27.9078 60.79 25.1628 67.125 22.5688 74C19.9748 80.875 17.3838 87.071 16.8118 87.769C15.6368 89.204 16.7008 90.686 24.2988 98.194C29.7148 103.545 30.1558 105.896 26.5488 110.182C24.7978 112.263 24.0488 114.347 24.0488 117.135C24.0488 119.325 23.5988 125.253 23.0488 130.308C22.4988 135.364 20.9228 149.85 19.5478 162.5C15.7458 197.462 15.0738 211.169 15.1348 252.5C15.2368 320.933 16.8118 374.471 21.0758 454.5C22.1598 474.85 23.4978 507.025 24.0488 526C25.0848 561.668 25.2178 563.195 27.7828 568.934C29.0358 571.739 29.0998 572.97 28.1298 575.651C26.8218 579.269 27.5058 581.332 30.9738 584.24C32.1148 585.197 33.0488 586.912 33.0488 588.05C33.0488 589.188 29.7698 594.705 25.7628 600.31C15.7758 614.279 11.6608 620.945 12.5028 621.788C13.7578 623.043 262.833 623.951 765.708 624.534L1255.87 625.102L1255.97 500.801C1256.08 367.419 1254.62 165.672 1253.1 103.14C1252.26 68.883 1251.97 64.573 1250.42 62.853C1248.93 61.209 1248.85 60.447 1249.86 57.643C1250.51 55.836 1251.05 53.588 1251.05 52.647C1251.05 49.798 1255 38.912 1258.63 31.749C1262.77 23.584 1262.85 22.319 1259.3 21.609C1252.7 20.289 1240.15 18.992 1235.55 19.156C1229.46 19.372 1148.64 17.308 1126.9 16.381C1118.29 16.014 1093.32 16.284 1071.4 16.982C1039.96 17.983 1008.85 18.016 924.049 17.139C769.477 15.542 599.569 15.139 469.549 16.061ZM1263.41 112.494C1263.1 113.316 1263.34 169.003 1263.95 236.244C1264.56 303.485 1265.06 413.026 1265.05 479.668C1265.05 546.311 1265.32 601.548 1265.66 602.418C1266.13 603.646 1267.79 604 1273.07 604C1276.82 604 1280.48 603.77 1281.22 603.489C1282.32 603.066 1282.54 580.037 1282.53 471.239C1282.51 398.782 1282.12 320.825 1281.65 298C1280.56 245.235 1280.47 239.426 1279.53 169.25L1278.76 111H1271.37C1265.74 111 1263.85 111.355 1263.41 112.494ZM612.549 543.053C581.332 544.189 550.829 545.898 523.049 548.068C501.625 549.742 497.263 550.346 495.76 551.847C493.836 553.768 494.27 556.487 496.646 557.399C497.44 557.703 506.967 557.31 517.819 556.524C579.585 552.052 614.825 550.801 676.549 550.889C704.599 550.929 732.949 551.413 739.549 551.965C752.9 553.081 775.023 553.331 777.467 552.393C779.351 551.67 779.569 547.651 777.799 546.269C777.112 545.732 763.724 544.543 748.049 543.627C718.149 541.879 652.457 541.601 612.549 543.053ZM645.049 556.692C630.879 557.166 568.71 561.071 563.572 561.809C557.763 562.644 555.655 565.038 558.358 567.731C559.753 569.122 561.566 569.455 566.841 569.29C575.177 569.028 609.084 567.291 631.049 566C640.124 565.467 659.924 564.737 675.049 564.379C690.174 564.02 703.337 563.322 704.299 562.828C706.318 561.792 706.596 558.947 704.849 557.2C703.718 556.069 671.763 555.797 645.049 556.692Z" fill="#161717"/>
<rect x="475.049" y="509" width="324" height="72" fill="#7CCBBB"/>
<path fill-rule="evenodd" clip-rule="evenodd" d="M469.549 16.061C244.644 17.657 122.043 18.934 96.5487 19.946C82.2487 20.513 62.2237 21.006 52.0487 21.041C29.6167 21.119 14.0487 22.858 14.0487 25.286C14.0487 26.405 23.2327 42.235 27.7097 48.833C30.3307 52.694 30.7487 57.542 28.6677 59.921C27.9077 60.79 25.1627 67.125 22.5687 74C19.9747 80.875 17.3837 87.071 16.8117 87.769C15.6367 89.204 16.7007 90.686 24.2987 98.194C29.7147 103.545 30.1557 105.896 26.5487 110.182C24.7977 112.263 24.0487 114.347 24.0487 117.135C24.0487 119.325 23.5987 125.253 23.0487 130.308C22.4987 135.364 20.9227 149.85 19.5477 162.5C15.7457 197.462 15.0737 211.169 15.1347 252.5C15.2367 320.933 16.8117 374.471 21.0757 454.5C22.1597 474.85 23.4977 507.025 24.0487 526C25.0847 561.668 25.2177 563.195 27.7827 568.934C29.0357 571.739 29.0997 572.97 28.1297 575.651C26.8217 579.269 27.5057 581.332 30.9737 584.24C32.1147 585.197 33.0487 586.912 33.0487 588.05C33.0487 589.188 29.7697 594.705 25.7627 600.31C15.7757 614.279 11.6607 620.945 12.5027 621.788C13.7577 623.043 262.833 623.951 765.708 624.534L1255.87 625.102L1255.97 500.801C1256.08 367.419 1254.62 165.672 1253.1 103.14C1252.26 68.883 1251.97 64.573 1250.42 62.853C1248.93 61.209 1248.85 60.447 1249.86 57.643C1250.51 55.836 1251.05 53.588 1251.05 52.647C1251.05 49.798 1255 38.912 1258.63 31.749C1262.77 23.584 1262.85 22.319 1259.3 21.609C1252.7 20.289 1240.15 18.992 1235.55 19.156C1229.46 19.372 1148.64 17.308 1126.9 16.381C1118.29 16.014 1093.32 16.284 1071.4 16.982C1039.96 17.983 1008.85 18.016 924.049 17.139C769.477 15.542 599.569 15.139 469.549 16.061ZM612.549 543.053C581.332 544.189 550.829 545.898 523.049 548.068C501.625 549.742 497.263 550.346 495.76 551.847C493.836 553.768 494.27 556.487 496.646 557.399C497.44 557.703 506.967 557.31 517.819 556.524C579.585 552.052 614.825 550.801 676.549 550.889C704.599 550.929 732.949 551.413 739.549 551.965C752.9 553.081 775.023 553.331 777.467 552.393C779.351 551.67 779.569 547.651 777.799 546.269C777.112 545.732 763.724 544.543 748.049 543.627C718.149 541.879 652.457 541.601 612.549 543.053ZM645.049 556.692C630.879 557.166 568.71 561.071 563.572 561.809C557.763 562.644 555.655 565.038 558.358 567.731C559.753 569.122 561.566 569.455 566.841 569.29C575.177 569.028 609.084 567.291 631.049 566C640.124 565.467 659.924 564.737 675.049 564.379C690.174 564.02 703.337 563.322 704.299 562.828C706.318 561.792 706.596 558.947 704.849 557.2C703.718 556.069 671.763 555.797 645.049 556.692Z" fill="#7CCBBB"/>
</svg>
