<svg width="871" height="448" viewBox="0 0 871 448" fill="none" xmlns="http://www.w3.org/2000/svg">
<path fill-rule="evenodd" clip-rule="evenodd" d="M265.265 114.862C264.536 117.379 266.425 123.195 268.361 124.391C269.989 125.397 269.701 123.396 268.017 121.999C267.221 121.338 266.434 118.921 266.267 116.626C266.016 113.176 265.842 112.871 265.265 114.862ZM675.757 176.207C668.494 190.643 654.603 217.754 644.889 236.454C627.381 270.156 614.299 296.506 613.063 300.557C612.551 302.236 613.224 303.192 616.399 305.293C618.587 306.741 620.809 308.044 621.338 308.19C621.866 308.335 625.659 301.929 629.767 293.954C633.874 285.979 638.161 277.654 639.294 275.454C640.426 273.254 647.216 259.529 654.384 244.954C666.313 220.694 672.999 207.719 681.952 191.454C683.769 188.154 688.43 179.267 692.311 171.704C698.937 158.793 699.228 157.954 697.09 157.954C694.474 157.954 690.463 154.132 690.463 151.64C690.463 150.712 690.126 149.955 689.713 149.957C689.3 149.958 683.02 161.771 675.757 176.207ZM697.173 177.115C693.601 183.902 685.839 198.679 679.924 209.954C674.01 221.229 667.371 233.829 665.173 237.954C651.411 263.772 629.397 308.861 629.448 311.126C629.456 311.496 630.925 312.285 632.713 312.878C634.501 313.472 637.648 315.507 639.708 317.4C643.445 320.836 643.455 320.838 644.63 318.648C645.277 317.441 648.132 311.954 650.974 306.454C658.466 291.955 662.491 284.659 663.941 282.954C664.642 282.129 668.073 275.379 671.565 267.954C675.057 260.529 679.132 252.348 680.622 249.773C682.111 247.199 690.837 230.099 700.013 211.773C709.188 193.448 717.748 176.648 719.035 174.442C722.303 168.837 721.26 167.574 714.627 169.106C709.581 170.27 709.357 170.227 706.553 167.54L703.669 164.777L697.173 177.115ZM734.502 175.611C730.995 176.838 729.638 176.92 728.155 175.994C727.117 175.346 726.2 174.959 726.116 175.135C724.089 179.375 717.142 192.706 710.694 204.728C706.145 213.209 698.659 227.416 694.056 236.301C689.454 245.185 682.374 258.754 678.323 266.454C674.273 274.154 670.148 282.254 669.157 284.454L667.356 288.454L669.722 285.57C672.183 282.571 675.52 281.87 680.463 283.314C682.837 284.008 683.278 283.426 689.214 271.749C696.239 257.934 703.89 243.498 712.426 227.954C723.1 208.517 740.633 173.954 739.795 174.002C739.337 174.028 736.956 174.752 734.502 175.611ZM659.164 304.732C654.928 313.454 651.463 321.074 651.463 321.665C651.463 322.957 653.808 323.954 656.845 323.954C658.065 323.954 659.569 324.46 660.186 325.077C661.017 325.908 662.104 324.627 664.364 320.15C666.044 316.822 667.842 313.838 668.36 313.518C669.836 312.606 676.463 300.316 676.463 298.49C676.463 297.566 674.952 296.221 672.995 295.403C671.087 294.606 668.928 292.811 668.196 291.413C666.908 288.956 666.61 289.396 659.164 304.732ZM605.452 320.122C603.327 324.493 602.396 327.432 603.066 327.655C604.398 328.099 612.871 333.447 618.13 337.162C620.238 338.652 627.311 341.731 633.847 344.005C643.426 347.337 645.907 347.878 646.638 346.796C649.152 343.078 653.293 334.118 652.75 333.574C652.409 333.233 651.416 332.954 650.543 332.954C648.157 332.954 634.471 326.101 630.319 322.827C628.315 321.247 625.924 319.954 625.005 319.954C622.844 319.954 612.848 315.387 611.998 314.011C610.54 311.651 608.764 313.309 605.452 320.122Z" fill="#5BFFDA"/>
<path fill-rule="evenodd" clip-rule="evenodd" d="M839.471 1.44419C838.791 2.26419 837.642 6.04221 836.919 9.83921C834.372 23.2062 827.74 31.8802 818.571 33.8352C816.073 34.3682 813.694 34.5972 813.284 34.3432C811.65 33.3342 803.381 33.7772 801.968 34.9502C798.058 38.1952 801.424 41.9542 808.24 41.9542C814.433 41.9542 820.48 45.7472 823.433 51.4832C825.677 55.8442 825.968 57.6882 826.105 68.4002C826.231 78.2252 826.552 80.6082 827.861 81.4332C830.61 83.1672 832.816 80.7042 835.535 72.8672C841.862 54.6332 847.226 49.7232 862.252 48.4122C867.766 47.9312 870.463 47.2862 870.463 46.4472C870.463 44.6122 868.593 43.4242 862.648 41.4842C851.317 37.7872 846.073 28.5492 846.219 12.5432C846.258 8.19219 845.891 3.57919 845.402 2.29319C844.392 -0.361809 841.334 -0.799808 839.471 1.44419ZM365.963 9.47019C351.852 15.6282 345.281 22.1072 346.841 28.3232C347.636 31.4932 354.47 39.2542 358.628 41.7112C360.187 42.6322 361.463 43.6262 361.462 43.9202C361.462 44.2142 355.724 45.4792 348.712 46.7322C332.284 49.6682 319.91 53.6002 305.918 60.3282C293.065 66.5082 285.19 71.6092 277.131 78.9742C270.183 85.3252 262.026 97.3182 259.988 104.182C256.006 117.589 260.2 130.092 269.768 133.342C271.861 134.052 273.661 134.889 273.768 135.202C273.875 135.514 270.974 137.327 267.322 139.231C245.007 150.862 215.17 175.999 197.025 198.454C181.297 217.918 171.165 235.891 162.639 259.454C153.209 285.513 149.523 305.579 149.486 331.073C149.455 351.978 152.292 367.337 160.455 390.454C163.518 399.128 171.543 418.29 172.579 419.404C175.424 422.462 172.566 422.412 156.213 419.118C136.303 415.109 134.812 415.244 124.81 421.96C117.288 427.011 109.042 429.944 102.238 429.989C89.0908 430.076 75.4128 434.384 73.9838 438.889C73.0938 441.691 75.3838 445.679 78.6628 447.037C81.2428 448.106 82.2978 447.931 87.2828 445.608C90.8698 443.936 96.1438 442.586 101.596 441.944C111.01 440.835 117.246 438.922 127.904 433.874C137.417 429.368 142.621 429.112 157.484 432.418C164.165 433.904 172.138 435.982 175.203 437.037C183.775 439.986 192.165 439.348 194.698 435.554C196.246 433.236 195.335 429.469 192.019 424.472C183.699 411.937 172.604 383.188 167.793 361.694C165.297 350.546 165.051 347.625 165.039 328.954C165.02 300.989 166.63 292.971 179.237 258.261C190.027 228.555 211.268 199.245 238.463 176.537C258.15 160.099 289.323 142.447 308.463 136.898C339.766 127.824 383.068 119.62 408.833 117.882C442.463 115.613 487.422 121.949 513.463 132.627C543.784 145.059 579.519 173.678 596.283 198.954C607.447 215.786 617.186 239.286 619.531 255.05L620.642 262.525L614.08 276.174C610.47 283.681 606.235 291.315 604.669 293.138C599.589 299.052 598.463 301.325 598.463 305.668C598.463 308.84 597.181 312.401 593.468 319.542C587.956 330.142 587.731 333.271 592.341 335.225C593.783 335.836 595.863 337.071 596.963 337.97C598.925 339.574 614.544 348.39 619.463 350.67C621.827 351.766 637.873 357.987 641.775 359.32C643.328 359.85 643.486 360.621 642.879 364.697C641.883 371.376 637.121 387.701 634.78 392.463C633.701 394.658 629.694 402.529 625.875 409.954C614.493 432.088 613.77 434.98 619.114 437.011C623.507 438.682 626.494 438.077 629.704 434.867C631.402 433.169 633.811 431.392 635.058 430.918C640.496 428.85 660.717 425.654 668.963 425.558C677.392 425.461 678.375 425.672 684.463 428.896C690.23 431.95 691.865 432.348 698.963 432.428C705.31 432.499 708.226 433.07 713.076 435.191C719.282 437.905 738.025 442.957 741.862 442.95C743.018 442.948 745.456 442.036 747.281 440.924C753.555 437.099 749.7 433.215 735.963 429.52C731.013 428.188 722.799 425.484 717.71 423.511C712.442 421.468 705.768 419.678 702.21 419.354C698.774 419.041 692.813 417.735 688.963 416.45C680.496 413.626 661.634 411.487 651.135 412.161C646.915 412.432 643.463 412.335 643.463 411.945C643.463 411.555 645.032 407.839 646.95 403.688C650.247 396.552 650.792 395.942 656.937 392.506C668.612 385.977 677.7 377.921 683.697 368.786C689.97 359.228 691.782 354.972 694.417 343.601C698.378 326.508 697.963 310.71 693.22 298.034L691.188 292.603L707.169 261.028C727.756 220.355 749.586 178.223 751.908 174.678C753.253 172.625 753.58 170.8 753.16 167.678C752.588 163.425 754.275 137.971 756.787 112.954C758.332 97.5622 758.204 87.5522 756.434 85.4202C754.233 82.7672 749.119 83.6752 743.857 87.6532C735.31 94.1142 722.724 104.806 720.81 107.233C719.794 108.522 715.588 112.455 711.463 115.973C707.338 119.491 703.738 122.62 703.463 122.926C701.921 124.64 692.376 132.029 688.879 134.216C685.329 136.436 683.799 138.74 677.195 151.819C673.015 160.095 661.825 181.399 652.327 199.161C642.829 216.922 634.587 232.463 634.011 233.696C632.716 236.466 631.463 236.611 631.463 233.991C631.463 229.836 620.957 206.655 614.224 195.954C601.927 176.408 574.732 149.055 552.963 134.335C537.938 124.174 517.558 115.219 498.032 110.196C492.494 108.771 487.843 107.526 487.696 107.429C487.549 107.333 490.474 104.142 494.196 100.338C498.042 96.4092 502.258 90.8402 503.963 87.4392C506.556 82.2662 506.96 80.3692 506.944 73.4542C506.927 66.6242 506.508 64.6572 504.076 60.0042C498.369 49.0872 486.211 40.2202 471.963 36.5852C451.474 31.3582 431.037 33.1352 402.282 42.6462C395.206 44.9862 394.182 45.0882 389.282 43.9362C382.572 42.3592 379.346 40.7272 372.463 35.4302C365.338 29.9472 363.086 27.3782 363.793 25.5362C364.589 23.4632 371.79 19.9542 375.249 19.9542C376.951 19.9542 378.997 19.0152 380.289 17.6402C383.768 13.9362 383.001 9.80121 378.391 7.41721C374.712 5.51421 375.218 5.43119 365.963 9.47019ZM42.3688 15.5672C41.4318 16.6972 41.0918 19.8632 41.2348 26.1212C41.6568 44.4982 38.5008 55.0732 30.4128 62.3802C25.3628 66.9432 19.7128 69.5572 12.9628 70.4522C2.17983 71.8832 -1.95817 74.6282 0.85783 78.4802C2.60483 80.8682 10.5418 80.6222 18.5278 77.9322C25.7008 75.5162 26.8978 75.5072 31.9628 77.8412C41.6978 82.3262 49.8928 95.5092 50.9918 108.454C51.8348 118.379 52.2258 119.757 54.5578 121.005C56.2048 121.887 57.0218 121.758 58.5458 120.379C60.2448 118.841 60.4628 117.189 60.4628 105.837C60.4628 95.4012 60.8398 92.0212 62.4988 87.5862C66.2768 77.4902 75.5188 68.6082 83.5908 67.3172C91.5228 66.0492 92.2128 60.6842 84.6128 59.3822C75.2558 57.7792 68.5508 55.5572 63.9408 52.5322C57.2948 48.1702 53.2488 40.0712 50.8618 26.3482C49.9158 20.9072 48.7088 15.8922 48.1798 15.2042C46.8408 13.4642 43.9648 13.6442 42.3688 15.5672ZM837.722 27.4542C835.294 32.1332 831.331 36.0352 826.561 38.4442L823.158 40.1632L826.379 43.1732C830.005 46.5622 831.359 49.4602 832.309 55.8662L832.963 60.2782L836.131 55.1822C839.236 50.1872 846.443 43.9542 849.113 43.9542C851.119 43.9542 850.761 42.9772 847.943 40.7602C844.915 38.3782 842.552 34.0382 840.969 27.9542L839.799 23.4542L837.722 27.4542ZM46.2458 51.8012C45.2578 55.1632 42.5628 60.3142 39.9008 63.9322C36.3228 68.7922 35.5778 70.4122 36.6178 71.0712C37.3578 71.5402 38.2518 71.9302 38.6048 71.9392C40.0048 71.9722 49.4858 81.2552 51.5788 84.6422L53.8048 88.2432L54.9578 84.3482C56.5618 78.9352 60.4208 73.1282 65.4098 68.6212C67.7368 66.5192 69.4878 64.6972 69.3018 64.5732C69.1158 64.4492 66.9378 63.4712 64.4628 62.4012C58.7328 59.9222 52.8658 54.6652 50.3698 49.7722C49.2988 47.6722 48.3188 45.9552 48.1928 45.9552C48.0658 45.9562 47.1898 48.5872 46.2458 51.8012ZM312.556 63.5002C308.483 65.4112 305.374 67.1982 305.648 67.4722C305.922 67.7462 309.93 66.1922 314.554 64.0192C319.179 61.8452 322.288 60.0582 321.463 60.0472C320.638 60.0352 316.63 61.5892 312.556 63.5002ZM709.693 129.135L696.424 140.227L697.06 143.84C697.928 148.772 699.63 150.47 702.281 149.052C707.36 146.333 712.241 150.012 711.053 155.663C710.064 160.368 711.246 161.059 718.102 159.784C726.034 158.309 728.876 159.089 730.509 163.191C731.224 164.986 731.916 166.602 732.048 166.783C732.179 166.964 734.746 166.337 737.75 165.39L743.213 163.668L743.816 156.561C744.148 152.652 744.716 144.876 745.079 139.28L745.738 129.105L741.351 127.992C734.476 126.248 729.845 123.963 726.849 120.835C725.331 119.251 723.836 117.974 723.526 117.999C723.216 118.023 716.992 123.035 709.693 129.135ZM675.757 176.207C668.494 190.643 654.603 217.754 644.889 236.454C627.381 270.156 614.299 296.506 613.063 300.557C612.551 302.236 613.224 303.192 616.399 305.293C618.587 306.741 620.809 308.044 621.338 308.19C621.866 308.335 625.659 301.929 629.767 293.954C633.874 285.979 638.161 277.654 639.294 275.454C640.426 273.254 647.216 259.529 654.384 244.954C666.313 220.694 672.999 207.719 681.952 191.454C683.769 188.154 688.43 179.267 692.311 171.704C698.937 158.793 699.228 157.954 697.09 157.954C694.474 157.954 690.463 154.132 690.463 151.64C690.463 150.712 690.126 149.955 689.713 149.957C689.3 149.958 683.02 161.771 675.757 176.207ZM697.173 177.115C693.601 183.902 685.839 198.679 679.924 209.954C674.01 221.229 667.371 233.829 665.173 237.954C651.411 263.772 629.397 308.861 629.448 311.126C629.456 311.496 630.925 312.285 632.713 312.878C634.501 313.472 637.648 315.507 639.708 317.4C643.445 320.836 643.455 320.838 644.63 318.648C645.277 317.441 648.132 311.954 650.974 306.454C658.466 291.955 662.491 284.659 663.941 282.954C664.642 282.129 668.073 275.379 671.565 267.954C675.057 260.529 679.132 252.348 680.622 249.773C682.111 247.199 690.837 230.099 700.013 211.773C709.188 193.448 717.748 176.648 719.035 174.442C722.303 168.837 721.26 167.574 714.627 169.106C709.581 170.27 709.357 170.227 706.553 167.54L703.669 164.777L697.173 177.115ZM734.502 175.611C730.995 176.838 729.638 176.92 728.155 175.994C727.117 175.346 726.2 174.959 726.116 175.135C724.089 179.375 717.142 192.706 710.694 204.728C706.145 213.209 698.659 227.416 694.056 236.301C689.454 245.185 682.374 258.754 678.323 266.454C674.273 274.154 670.148 282.254 669.157 284.454L667.356 288.454L669.722 285.57C672.183 282.571 675.52 281.87 680.463 283.314C682.837 284.008 683.278 283.426 689.214 271.749C696.239 257.934 703.89 243.498 712.426 227.954C723.1 208.517 740.633 173.954 739.795 174.002C739.337 174.028 736.956 174.752 734.502 175.611ZM400.559 201.219C396.308 203.404 394.285 207.25 393.794 214.084C393.418 219.313 393.705 221.04 395.397 223.724C398.222 228.206 401.426 229.562 405.062 227.813C414.097 223.468 416.098 206.751 408.162 201.912C404.422 199.631 403.765 199.572 400.559 201.219ZM351.58 204.585C344.261 209.711 345.052 227.729 352.713 230.386C356.342 231.645 360.187 230.222 362.861 226.631C364.587 224.312 364.963 222.375 364.963 215.794C364.963 208.254 364.797 207.638 362.157 205.367C358.899 202.565 354.887 202.268 351.58 204.585ZM172.503 248.055C171.405 250.474 170.534 253.129 170.567 253.954C175.018 248.055 171.732 253.033 173.082 250.075C174.433 247.116 175.304 244.461 175.018 244.176C174.732 243.89 173.6 245.636 172.503 248.055ZM418.784 249.143C416.552 250.222 414.727 253.895 414.655 257.454C414.588 260.787 409.523 268.784 404.097 274.125C397.893 280.232 391.699 283.504 382.344 285.617C375.8 287.095 374.848 287.084 368.877 285.468C365.344 284.512 360.668 282.436 358.486 280.856C353.805 277.465 349.039 269.582 347.392 262.508C346.744 259.728 345.292 256.441 344.165 255.204C342.051 252.884 338.053 252.19 336.963 253.954C336.623 254.504 333.334 254.979 329.654 255.01C318.516 255.104 311.824 258.743 315.686 262.606C317.183 264.103 317.975 264.152 322.669 263.037C325.581 262.345 329.678 261.931 331.774 262.117C335.55 262.451 335.606 262.52 338.061 269.828C342.095 281.841 347.553 288.414 357.856 293.671C362.064 295.818 364.735 296.358 373.034 296.738C384.028 297.243 390.703 295.893 399.657 291.356C405.847 288.219 415.768 278.121 421.463 269.162C423.938 265.268 426.985 261.609 428.233 261.03C430.894 259.797 432.779 255.524 431.892 252.731C431.245 250.69 425.833 247.904 422.745 248.022C421.765 248.059 419.983 248.563 418.784 249.143ZM659.164 304.732C654.928 313.454 651.463 321.074 651.463 321.665C651.463 322.957 653.808 323.954 656.845 323.954C658.065 323.954 659.569 324.46 660.186 325.077C661.017 325.908 662.104 324.627 664.364 320.15C666.044 316.822 667.842 313.838 668.36 313.518C669.836 312.606 676.463 300.316 676.463 298.49C676.463 297.566 674.952 296.221 672.995 295.403C671.087 294.606 668.928 292.811 668.196 291.413C666.908 288.956 666.61 289.396 659.164 304.732ZM605.452 320.122C603.327 324.493 602.396 327.432 603.066 327.655C604.398 328.099 612.871 333.447 618.13 337.162C620.238 338.652 627.311 341.731 633.847 344.005C643.426 347.337 645.907 347.878 646.638 346.796C649.152 343.078 653.293 334.118 652.75 333.574C652.409 333.233 651.416 332.954 650.543 332.954C648.157 332.954 634.471 326.101 630.319 322.827C628.315 321.247 625.924 319.954 625.005 319.954C622.844 319.954 612.848 315.387 611.998 314.011C610.54 311.651 608.764 313.309 605.452 320.122ZM679.91 316.129C679.506 317.408 677.473 321.258 675.392 324.686C673.312 328.113 671.321 331.826 670.969 332.936C670.616 334.047 668.858 336.077 667.061 337.447C664.243 339.597 663.543 341.075 661.969 348.197C660.965 352.738 659.116 360.717 657.859 365.926C656.603 371.136 655.763 375.587 655.993 375.818C656.812 376.636 665.499 368.761 668.324 364.641C675.839 353.677 681.538 335.335 681.58 321.972C681.605 314.231 681.085 312.413 679.91 316.129ZM802.035 427.496C789.216 430.082 779.186 436.699 781.508 441.038C783.345 444.471 785.85 445.046 789.563 442.886C796.528 438.833 801.603 436.843 806.428 436.272C810.969 435.734 811.695 435.95 814.962 438.819C819.124 442.473 820.395 442.649 823.602 440.015L825.963 438.075L823.963 434.346C820.029 427.01 813.914 425.1 802.035 427.496ZM845.213 435.526C841.273 437.663 841.536 441.218 845.831 443.872C849.837 446.348 852.529 446.488 856.513 444.428C860.31 442.464 860.445 438.872 856.828 436.027C853.757 433.611 849.112 433.411 845.213 435.526Z" fill="#050605"/>
<rect x="170.463" y="243.954" width="9" height="11" fill="#050605"/>
<rect x="303.463" y="65.9718" width="19" height="6" transform="rotate(-24.9593 303.463 65.9718)" fill="#050605"/>
</svg>
