<svg width="298" height="306" viewBox="0 0 298 306" fill="none" xmlns="http://www.w3.org/2000/svg">
<path fill-rule="evenodd" clip-rule="evenodd" d="M136.737 0.901881C131.243 2.84088 125.486 6.74788 124.233 9.38888C122.78 12.4509 123.816 14.5569 129.048 19.1789L132.36 22.1049L127.657 22.7909C104.533 26.1629 83.4053 38.3069 76.1273 52.4089C72.3573 59.7139 72.8253 66.5109 77.4033 70.9439L79.0853 72.5719L77.8943 73.0799C77.2393 73.3589 75.6273 74.0429 74.3113 74.5989C54.6553 82.9119 35.2343 98.4459 23.4963 115.244C12.6003 130.837 6.97828 143.863 2.42528 164.063C-5.41972 198.87 6.02128 235.371 33.0643 261.819C43.3223 271.851 50.9693 277.637 63.9443 285.182C65.5783 286.132 75.9713 291.306 77.8203 292.09C79.6013 292.845 81.1123 293.446 84.8373 294.884C105.34 302.798 135.412 306.693 159.478 304.553C208.167 300.224 236.974 284.859 249.421 256.581C253.302 247.763 254.742 240.847 255.173 228.964C255.856 210.125 259.927 201.926 272.716 193.63C281.719 187.79 285.005 184.884 289.209 179.044C308.871 151.729 294.084 103.748 258.49 79.3629C252.239 75.0799 250.775 74.1699 246.081 71.6429C236.307 66.3809 222.702 61.2269 214.343 59.6189C211.63 59.0979 208.2 58.3349 208.095 58.2299C208.044 58.1779 209.013 57.3499 210.251 56.3889C221.08 47.9809 224.52 35.5599 218.606 26.2239C209.554 11.9339 182.152 10.2319 155.931 22.3319C153.782 23.3229 151.943 23.2989 149.903 22.2519C149.636 22.1149 148.301 21.7719 146.935 21.4899C144.226 20.9309 143.035 20.1579 136.113 14.4759C132.645 11.6279 132.584 11.5159 134.042 10.6379C134.611 10.2959 135.744 9.61888 136.561 9.13388C137.431 8.61688 138.933 8.11088 140.19 7.90988C144.03 7.29688 144.995 6.32188 144.718 3.33788C144.404 -0.0401185 141.725 -0.858119 136.737 0.901881ZM189.143 65.0179C213.929 66.9169 233.208 73.1499 250.866 84.9739C285.422 108.111 299.836 150.384 281.491 174.79C278.587 178.652 275.904 181.01 270.007 184.875C253.014 196.018 247.568 205.687 246.883 225.934C246.487 237.664 245.922 241.307 243.404 248.365C233.055 277.378 203.603 293.019 153.737 295.984C109.262 298.629 67.6543 283.827 38.8853 255.127C9.14128 225.454 1.19728 187.395 16.3143 146.987C35.4563 95.8179 84.5793 68.5699 164.901 64.5679C168.831 64.3719 184.517 64.6629 189.143 65.0179ZM167.018 97.0549C163.679 98.2459 162.668 100.442 162.67 106.497C162.672 112.939 163.361 114.867 166.167 116.285C170.045 118.244 173.655 116.016 174.491 111.15C176.13 101.6 172.655 95.0459 167.018 97.0549ZM131.568 98.6849C126.211 101.479 126.463 115.427 131.908 117.506C137.257 119.549 140.204 115.805 139.96 107.275C139.745 99.7689 136.284 96.2269 131.568 98.6849ZM178.422 131.031C177.373 131.455 176.483 132.803 176.048 134.63C171.887 152.079 152.623 160.934 138.679 151.808C133.893 148.677 129.56 142.72 128.388 137.663C127.452 133.619 123.73 132.273 121.009 134.993C119.056 136.947 119.3 139.12 122.168 145.305C134.09 171.009 168.477 170.413 181.569 144.275C182.924 141.568 184.679 136.201 184.673 134.782C184.66 131.851 181.334 129.855 178.422 131.031ZM197.915 195.177C177.048 198.051 160.874 220.043 164.247 240.955C168.447 266.992 200.787 267.822 217.839 242.33C234.434 217.52 223.504 191.654 197.915 195.177ZM209.055 204.854C217.901 208.781 219.681 219.65 213.552 232.314C205.255 249.456 186.414 257.572 176.737 248.172C171.801 243.376 171.137 231.438 175.306 222.425C181.486 209.065 198.54 200.186 209.055 204.854Z" fill="#0C0C0C"/>
<path fill-rule="evenodd" clip-rule="evenodd" d="M170.101 64.6088C171.821 64.6668 174.548 64.6658 176.162 64.6088C177.775 64.5508 176.368 64.5038 173.035 64.5038C169.702 64.5038 168.381 64.5518 170.101 64.6088ZM185.076 64.9099C185.383 64.9899 185.886 64.9899 186.193 64.9099C186.5 64.8299 186.249 64.7638 185.635 64.7638C185.021 64.7638 184.769 64.8299 185.076 64.9099ZM264.104 95.7908C264.699 96.4048 265.257 96.9068 265.345 96.9068C265.433 96.9068 265.018 96.4048 264.422 95.7908C263.827 95.1768 263.269 94.6738 263.181 94.6738C263.093 94.6738 263.508 95.1768 264.104 95.7908ZM162.467 106.476C162.467 108.319 162.52 109.072 162.584 108.151C162.649 107.23 162.649 105.723 162.584 104.802C162.52 103.881 162.467 104.634 162.467 106.476ZM68.6663 110.958C56.5843 113.345 46.4243 128.166 48.5933 140.24C51.7413 157.767 73.7823 159.195 84.6153 142.573C95.1183 126.459 85.6093 107.61 68.6663 110.958ZM175.891 206.397L174.63 207.752L175.985 206.491C176.731 205.798 177.341 205.188 177.341 205.136C177.341 204.894 177.063 205.136 175.891 206.397ZM246.685 227.37C246.685 229.738 246.735 230.707 246.796 229.523C246.858 228.338 246.858 226.401 246.796 225.216C246.735 224.032 246.685 225.001 246.685 227.37ZM110.993 234.719C99.4143 236.104 91.1043 247.991 93.9333 259.121C98.5793 277.397 122.63 279.971 131.079 263.095C138.143 248.984 126.715 232.838 110.993 234.719ZM211.611 249.778L210.674 250.815L211.711 249.878C212.281 249.362 212.748 248.896 212.748 248.841C212.748 248.595 212.485 248.812 211.611 249.778ZM138.031 296.176C138.427 296.252 139.002 296.249 139.307 296.169C139.612 296.089 139.287 296.027 138.585 296.031C137.883 296.034 137.634 296.099 138.031 296.176ZM149.67 296.17C149.977 296.25 150.479 296.25 150.786 296.17C151.093 296.09 150.842 296.024 150.228 296.024C149.614 296.024 149.363 296.09 149.67 296.17Z" fill="#10A9D6"/>
<path fill-rule="evenodd" clip-rule="evenodd" d="M156.608 65.1779C113.364 68.3429 75.9452 79.8799 53.4942 96.9699C15.3712 125.991 -1.03583 178.577 15.2022 219.7C29.3212 255.456 67.0002 284.246 111.19 293.044C148.46 300.464 195.215 294.15 219.127 278.467C237.453 266.449 245.81 251.029 246.564 227.848C247.299 205.26 252.766 195.739 272.119 183.35C297.371 167.185 294.592 127.223 266.177 97.9069C241.759 72.7149 204.737 61.6559 156.608 65.1779ZM172.103 97.7019C174.496 99.5279 175.662 106.483 174.49 111.947C173.149 118.201 165.597 118.911 163.123 113.015C162.507 111.547 162.142 105.947 162.484 103.21C163.154 97.8519 168.378 94.8599 172.103 97.7019ZM137.058 98.8629C139.563 100.411 140.806 106.507 139.878 112.697C138.868 119.431 130.059 119.821 128.223 113.212C127.797 111.677 127.813 104.089 128.246 102.529C129.285 98.7879 133.859 96.8859 137.058 98.8629ZM246.301 101.58C264.51 106.987 267.125 132.838 250.387 141.985C236.748 149.439 220.509 138.87 220.581 122.585C220.644 108.271 233.494 97.7759 246.301 101.58ZM76.7162 111.111C89.0122 114.269 92.9202 129.831 84.6152 142.573C73.7822 159.195 51.7412 157.767 48.5932 140.24C45.7682 124.513 62.2842 107.405 76.7162 111.111ZM182.808 131.22C184 131.837 185.145 134.205 184.853 135.452C179.242 159.422 154.656 171.407 134.757 159.873C126.255 154.945 117.441 140.174 120.252 135.564C122.453 131.954 128.485 133.665 128.53 137.913C128.542 139.02 131.044 143.83 132.874 146.267C144.788 162.125 169.433 156.26 175.421 136.141C176.965 130.953 179.293 129.403 182.808 131.22ZM61.9402 187.811C72.1352 190.961 77.7172 203.451 74.0392 214.888C68.4182 232.367 47.7882 235.715 39.3622 220.516C30.1462 203.892 44.8842 182.543 61.9402 187.811ZM208.789 195.47C225.534 199.691 230.743 217.841 220.81 237.353C204.231 269.92 163.929 268.611 163.85 235.504C163.792 211.102 187.394 190.076 208.789 195.47ZM119.674 235.556C130.976 239.074 136.467 252.333 131.079 263.095C123.551 278.131 102.831 278.259 95.5352 263.314C87.7962 247.462 102.735 230.283 119.674 235.556Z" fill="#FBFBFB"/>
<path fill-rule="evenodd" clip-rule="evenodd" d="M238.576 101.032C221.617 103.356 214.499 125.055 226.49 137.873C239.481 151.76 261.351 142.277 261.382 122.744C261.403 109.417 250.832 99.3519 238.576 101.032Z" fill="#FB4544"/>
<path fill-rule="evenodd" clip-rule="evenodd" d="M51.0932 187.986C35.9832 193.134 31.5012 213.761 43.0212 225.137C54.8622 236.83 74.0573 227.129 75.1683 208.891C76.0443 194.514 63.6142 183.721 51.0932 187.986Z" fill="#FCBC05"/>
</svg>
